<?xml version="1.0" encoding="utf-8"?>
<!-- Generator: Adobe Illustrator 28.0.0, SVG Export Plug-In . SVG Version: 6.00 Build 0)  -->
<svg version="1.1" id="Layer_1" xmlns="http://www.w3.org/2000/svg" xmlns:xlink="http://www.w3.org/1999/xlink" x="0px" y="0px"
	 viewBox="0 0 60 60" style="enable-background:new 0 0 60 60;" xml:space="preserve">
<style type="text/css">
	.st0{fill:url(#SVGID_1_);}
</style>
<radialGradient id="SVGID_1_" cx="55.1692" cy="17.9194" r="56.802" gradientUnits="userSpaceOnUse">
	<stop  offset="0" style="stop-color:#DA2425"/>
	<stop  offset="1" style="stop-color:#8F1D1C"/>
</radialGradient>
<path class="st0" d="M59.6,25.9c-0.5-0.5-1.4-0.5-1.9,0l-2.2,2.2l-5.4-5.4c-2.7-2.7-6.6-3.6-10.1-2.6c1-3.5,0.2-7.4-2.6-10.1
	l-5.4-5.4l2.2-2.2c0.5-0.5,0.5-1.4,0-1.9c-0.5-0.5-1.4-0.5-1.9,0l-3.2,3.2c0,0,0,0,0,0c0,0,0,0,0,0l-6.3,6.3
	c-2.7,2.7-3.6,6.7-2.6,10.2c-3.5-1-7.4-0.2-10.2,2.6l-9.6,9.6c-0.5,0.5-0.5,1.4,0,1.9c0.5,0.5,1.4,0.5,1.9,0l2.2-2.2l5.4,5.4
	c2,2,4.7,3,7.3,3c1,0,1.9-0.2,2.8-0.4c-1,3.5-0.2,7.4,2.6,10.1l5.4,5.4l-2.2,2.2c-0.5,0.5-0.5,1.4,0,1.9c0.3,0.3,0.6,0.4,0.9,0.4
	s0.7-0.1,0.9-0.4l9.6-9.6c2.7-2.7,3.6-6.7,2.6-10.2c0.9,0.3,1.9,0.4,2.8,0.4c2.7,0,5.3-1,7.3-3l9.6-9.6
	C60.1,27.2,60.1,26.4,59.6,25.9z M24.6,11.8L30,6.4l5.4,5.4c3,3,3,7.8,0,10.8c0,0,0,0-0.1,0c0,0,0,0,0,0.1c-1.4,1.4-3.3,2.2-5.4,2.2
	c-2,0-4-0.8-5.4-2.2C21.6,19.7,21.6,14.8,24.6,11.8z M32.8,27.2c-0.5,1.8-0.5,3.8,0,5.6c-0.9-0.3-1.9-0.4-2.8-0.4
	c-1,0-1.9,0.2-2.8,0.4c0.5-1.8,0.5-3.8,0-5.6c0.9,0.3,1.9,0.4,2.8,0.4C31,27.6,31.9,27.4,32.8,27.2z M11.8,35.4L6.4,30l5.4-5.4
	c3-3,7.9-3,10.8,0c3,3,3,7.8,0,10.8c0,0,0,0-0.1,0c0,0,0,0,0,0.1C19.6,38.4,14.8,38.4,11.8,35.4z M35.4,48.2L30,53.6l-5.4-5.4
	c-3-3-3-7.8,0-10.8c0,0,0,0,0.1,0c0,0,0,0,0-0.1c1.4-1.4,3.3-2.2,5.4-2.2c2,0,4,0.8,5.4,2.2C38.4,40.3,38.4,45.2,35.4,48.2z
	 M48.2,35.4c-3,3-7.9,3-10.8,0c-3-3-3-7.8,0-10.8c0,0,0,0,0.1,0c0,0,0,0,0-0.1c1.5-1.5,3.4-2.2,5.4-2.2c2,0,3.9,0.7,5.4,2.2l5.4,5.4
	L48.2,35.4z"/>
</svg>
